<?xml version="1.0" encoding="UTF-8" standalone="no"?>
<svg width="512" height="512" viewBox="0 0 512 512" fill="none" xmlns="http://www.w3.org/2000/svg">
  <rect width="512" height="512" rx="100" fill="#3A3A3A"/>
  <rect width="256" height="256" fill="#5B7D84"/>
  <rect x="256" width="256" height="256" fill="#375363"/>
  <rect y="256" width="256" height="256" fill="#375363"/>
  <rect x="256" y="256" width="256" height="256" fill="#F2A33A"/>
  
  <!-- Plus sign in top-left -->
  <g fill="white">
    <rect x="88" y="128" width="80" height="25" rx="12.5"/>
    <rect x="120.5" y="95.5" width="80" height="25" rx="12.5" transform="rotate(90 120.5 95.5)"/>
  </g>
  
  <!-- Minus sign in top-right -->
  <rect x="336" y="128" width="80" height="25" rx="12.5" fill="white"/>
  
  <!-- Times sign in bottom-left -->
  <g fill="white">
    <rect x="103" y="329" width="80" height="25" rx="12.5" transform="rotate(-45 103 329)"/>
    <rect x="103" y="347" width="80" height="25" rx="12.5" transform="rotate(-135 103 347)"/>
  </g>
  
  <!-- Equal sign in bottom-right -->
  <g fill="white">
    <rect x="336" y="360" width="80" height="25" rx="12.5"/>
    <rect x="336" y="400" width="80" height="25" rx="12.5"/>
  </g>
</svg>